<?xml version="1.0" encoding="utf-8"?>
<!-- Generator: Adobe Illustrator 21.0.0, SVG Export Plug-In . SVG Version: 6.00 Build 0)  -->
<svg version="1.1"
	 id="svg4485" inkscape:version="0.92.1 r15371" sodipodi:docname="floorplan.svg" xmlns:cc="http://creativecommons.org/ns#" xmlns:dc="http://purl.org/dc/elements/1.1/" xmlns:inkscape="http://www.inkscape.org/namespaces/inkscape" xmlns:rdf="http://www.w3.org/1999/02/22-rdf-syntax-ns#" xmlns:sodipodi="http://sodipodi.sourceforge.net/DTD/sodipodi-0.dtd" xmlns:svg="http://www.w3.org/2000/svg"
	 xmlns="http://www.w3.org/2000/svg" xmlns:xlink="http://www.w3.org/1999/xlink" x="0px" y="0px" viewBox="0 0 210 172"
	 style="enable-background:new 0 0 210 172;" xml:space="preserve">
<style type="text/css">
	.st0{fill:#F0F0F0;}
	.st1{fill:#C8C8C8;}
	.st2{fill:none;stroke:#B9B9B9;}
	.st3{enable-background:new    ;}
	.st4{fill:#646464;}
	.st5{fill:#FFFFFF;}
	.st6{fill:#A1A1A1;}
</style>
<sodipodi:namedview  bordercolor="#666666" borderopacity="1" gridtolerance="10000" guidetolerance="10000" id="namedview4487" inkscape:current-layer="svg4485" inkscape:cx="76.773405" inkscape:cy="113.15016" inkscape:object-nodes="true" inkscape:object-paths="true" inkscape:pageopacity="0" inkscape:pageshadow="2" inkscape:snap-bbox="false" inkscape:snap-center="false" inkscape:snap-global="false" inkscape:snap-grids="true" inkscape:snap-intersection-paths="true" inkscape:snap-midpoints="true" inkscape:snap-nodes="true" inkscape:snap-object-midpoints="true" inkscape:snap-others="true" inkscape:snap-smooth-nodes="false" inkscape:snap-text-baseline="true" inkscape:window-height="1018" inkscape:window-maximized="1" inkscape:window-width="1920" inkscape:window-x="-8" inkscape:window-y="-8" inkscape:zoom="3.7057633" objecttolerance="10" pagecolor="#ffffff" showgrid="true">
	<inkscape:grid  empspacing="1" id="grid4496" spacingx="1" spacingy="1" type="xygrid"></inkscape:grid>
</sodipodi:namedview>
<path id="rect4639" class="st0" d="M139,4v4h1v20h-1v15v9v11h-2v1h-5v-1h-13v1h-5v-1h-6v1H88V45H44v16.5V63v1.5H33V63H11v47h1v13h-1
	v18h1v12h-1v9h173v-8h-1v-14h1v-3h18v-6h-1v-14h1v-3h4V91h-13V63h1v-6h-1V18v-3V9h1V4H139z"/>
<rect id="binary_sensor.back_hallway" x="37.7" y="130.2" inkscape:label="binary_sensor.back_hallway" class="st1" width="50" height="8">
</rect>
<path id="binary_sensor.theatre_room" inkscape:connector-curvature="0" inkscape:label="binary_sensor.theatre_room" class="st1" d="
	M32.7,64.2v1h-20v38h36v-14h-3v-4h1v-18h-1v-2h-2v-1H32.7z"/>
<path id="binary_sensor.kitchen" inkscape:connector-curvature="0" inkscape:label="binary_sensor.kitchen" class="st1" d="
	M50.7,88.2v1h-2v14h-6v17h5v4h9v6h8v-6h9v6h41v-36h-4v-6h-25v1h-5v-1H50.7z"/>
<path id="binary_sensor.front_hallway" inkscape:connector-curvature="0" class="st1" d="M114.7,94.2v13h7v3h63v-1h1v-3h1v-8h-1v-4
	H114.7z"/>
<path id="binary_sensor.hair_salon" inkscape:connector-curvature="0" inkscape:label="binary_sensor.hair_salon" class="st1" d="
	M140.7,59.2v35h45v-1h6v-3h1v-27h-1v-4H140.7z"/>
<path id="binary_sensor.master_bedroom" inkscape:connector-curvature="0" inkscape:label="binary_sensor.master_bedroom" class="st1" d="
	M146.7,110.2v20h-3v30h8v1h22v-1h8v-6h2v-15h-2v-4h2v-4h-10v-21L146.7,110.2z"/>
<g id="layer1" transform="translate(0,10)" inkscape:groupmode="layer" inkscape:label="Black">
</g>
<path id="path4528" inkscape:connector-curvature="0" class="st2" d="M139,4.5h55v4h-2v-2h-51v2h-2V4.5z"/>
<path id="path4530" inkscape:connector-curvature="0" class="st2" d="M139,28.5h2v22h-2V28.5z"/>
<path id="path4534" inkscape:connector-curvature="0" class="st2" d="M192,57.5h2v6h-2V57.5z"/>
<path id="path4536" inkscape:connector-curvature="0" class="st2" d="M139,57.5h2v8h-4v-2h2V57.5z"/>
<path id="path4538" inkscape:connector-curvature="0" class="st2" d="M192,90.5h2v5h-6v3h-2v-5h6V90.5z"/>
<path id="path4540" inkscape:connector-curvature="0" class="st2" d="M202,91.5h4v4h-4V91.5z"/>
<path id="path4560" inkscape:connector-curvature="0" sodipodi:nodetypes="ccccccccccc" class="st2" d="M202,116.5v-7h-14v-3h-2v3
	h-1v2h15v5h2.5"/>
<path id="path4564" inkscape:connector-curvature="0" class="st2" d="M140,8.5v20"/>
<path id="path4566" inkscape:connector-curvature="0" class="st2" d="M193,8.5v49"/>
<path id="path4568" inkscape:connector-curvature="0" class="st2" d="M140,50.5v7"/>
<path id="path4570" inkscape:connector-curvature="0" class="st2" d="M149,59.5h-8"/>
<path id="path4572" inkscape:connector-curvature="0" class="st2" d="M156,59.5h36"/>
<path id="path4574" inkscape:connector-curvature="0" class="st2" d="M193,63.5v27"/>
<path id="path4576" inkscape:connector-curvature="0" sodipodi:nodetypes="cc" class="st2" d="M194,91.5h8"/>
<path id="path4578" inkscape:connector-curvature="0" sodipodi:nodetypes="cc" class="st2" d="M206,95.5v14"/>
<path id="path4580" inkscape:connector-curvature="0" class="st2" d="M202,109.5h4v4h-4V109.5"/>
<path id="path4582" inkscape:connector-curvature="0" sodipodi:nodetypes="ccccccccc" class="st2" d="M182,135.5h18v-4h2v6h-18v2h-2
	V135"/>
<path id="path4584" inkscape:connector-curvature="0" class="st2" d="M201,116.5v15"/>
<path id="path4586" inkscape:connector-curvature="0" class="st2" d="M174,110.5v21h9v4"/>
<path id="path4588" inkscape:connector-curvature="0" class="st2" d="M174,160.5h8v-6h2v8h-10V160.5z"/>
<path id="path4590" inkscape:connector-curvature="0" class="st2" d="M183,139.5v15"/>
<path id="path4592" inkscape:connector-curvature="0" sodipodi:nodetypes="cccccc" class="st2" d="M128,160.5h24v2h-24v-0.6V160"/>
<path id="path4596" inkscape:connector-curvature="0" class="st2" d="M129,137.5v1h15v22"/>
<path id="path4602" inkscape:connector-curvature="0" class="st2" d="M135,153.5h9"/>
<path id="path4604" inkscape:connector-curvature="0" class="st2" d="M152,161.5h22"/>
<path id="path4606" inkscape:connector-curvature="0" class="st2" d="M182,110.5h3"/>
<path id="path4610" inkscape:connector-curvature="0" class="st2" d="M159,110.5h16"/>
<path id="path4612" inkscape:connector-curvature="0" class="st2" d="M161,115.5h-1v-5"/>
<path id="path4614" inkscape:connector-curvature="0" class="st2" d="M173,115.5h1"/>
<path id="path4616" inkscape:connector-curvature="0" class="st2" d="M187,98.5v8"/>
<path id="path4618" inkscape:connector-curvature="0" class="st2" d="M141,65.5v29h8"/>
<path id="path4620" inkscape:connector-curvature="0" class="st2" d="M157,94.5h29"/>
<path id="path4622" inkscape:connector-curvature="0" sodipodi:nodetypes="ccccc" class="st2" d="M119,63.5h13v2h-13l0-2.5"/>
<path id="path4624" inkscape:connector-curvature="0" sodipodi:nodetypes="ccccc" class="st2" d="M108,63.5h6v2h-6l0-2.5"/>
<path id="path4626" inkscape:connector-curvature="0" class="st2" d="M117,94.5h-6v-29"/>
<path id="path4628" inkscape:connector-curvature="0" class="st2" d="M114,64.5h5"/>
<path id="path4630" inkscape:connector-curvature="0" class="st2" d="M88,63.5h-4v4h2v-2h2V63.5"/>
<path id="path4632" inkscape:connector-curvature="0" class="st2" d="M88,64.5h20"/>
<path id="path4634" inkscape:connector-curvature="0" class="st2" d="M81,87.5h3v-2h2v4h-5V87.5z"/>
<path id="path4636" inkscape:connector-curvature="0" class="st2" d="M85,67.5v18"/>
<path id="path4638" inkscape:connector-curvature="0" class="st2" d="M84,45.5h4v4h-4V45.5z"/>
<path id="path4640" inkscape:connector-curvature="0" class="st2" d="M88,49.5v14"/>
<path id="path4644" inkscape:connector-curvature="0" sodipodi:nodetypes="ccccc" class="st2" d="M44,45.5h4v4h-4l0-4.5"/>
<path id="path4646" inkscape:connector-curvature="0" class="st2" d="M48,45.5h36"/>
<path id="path4648" inkscape:connector-curvature="0" class="st2" d="M44,63.5h4v4h-2v-2h-2V63.5"/>
<path id="path4650" inkscape:connector-curvature="0" class="st2" d="M44,49.5v14"/>
<path id="path4652" inkscape:connector-curvature="0" sodipodi:nodetypes="ccccccc" class="st2" d="M46,85.5h2v2h3v2h-5V85"/>
<path id="path4654" inkscape:connector-curvature="0" class="st2" d="M47,67.5v18"/>
<path id="path4656" inkscape:connector-curvature="0" class="st2" d="M48,89.5v2"/>
<path id="path4658" inkscape:connector-curvature="0" class="st2" d="M51,88.5h30"/>
<path id="path4660" inkscape:connector-curvature="0" sodipodi:nodetypes="cccccccc" class="st2" d="M33,63.5h0.5H11v46h2v-44h20
	V63.5"/>
<path id="path4662" inkscape:connector-curvature="0" class="st2" d="M33,64.5h11"/>
<path id="path4664" inkscape:connector-curvature="0" class="st2" d="M13,103.5h35v-5"/>
<path id="path4666" inkscape:connector-curvature="0" class="st2" d="M38,103.5v2"/>
<path id="path4668" inkscape:connector-curvature="0" class="st2" d="M11,123.5h2v18h-2V123.5z"/>
<path id="path4670" inkscape:connector-curvature="0" class="st2" d="M12,109.5v14"/>
<path id="path4672" inkscape:connector-curvature="0" class="st2" d="M11,153.5h2v7h32v2H11V153.5z"/>
<path id="path4674" inkscape:connector-curvature="0" class="st2" d="M12,141.5v12"/>
<path id="path4676" inkscape:connector-curvature="0" class="st2" d="M13,130.5h27"/>
<path id="path4678" inkscape:connector-curvature="0" class="st2" d="M38,131.5L38,131.5"/>
<path id="path4680" inkscape:connector-curvature="0" class="st2" d="M26,134.5h2v-4"/>
<path id="path4682" inkscape:connector-curvature="0" class="st2" d="M14,134.5h-1"/>
<path id="path4684" inkscape:connector-curvature="0" class="st2" d="M38,137.5v23"/>
<path id="path4686" inkscape:connector-curvature="0" class="st2" d="M38,131.5"/>
<path id="path4688" inkscape:connector-curvature="0" class="st2" d="M38,138.5h6"/>
<path id="path4690" inkscape:connector-curvature="0" class="st2" d="M38,130.5v1"/>
<path id="path4692" inkscape:connector-curvature="0" class="st2" d="M43,120.5v-17"/>
<path id="path4694" inkscape:connector-curvature="0" class="st2" d="M38,118.5v2h10v10l0,0"/>
<path id="path4696" inkscape:connector-curvature="0" class="st2" d="M47,130.5h2"/>
<path id="path4698" inkscape:connector-curvature="0" sodipodi:nodetypes="ccccccccc" class="st2" d="M48,124.5h1.4H57v6h8v-6h9v6
	h-1"/>
<path id="path4700" inkscape:connector-curvature="0" class="st2" d="M56,130.5h1"/>
<path id="path4702" inkscape:connector-curvature="0" class="st2" d="M66,130.5h-1"/>
<path id="path4712" inkscape:connector-curvature="0" sodipodi:nodetypes="cccccc" class="st2" d="M52.5,160.5h0.8H58v2h-5v-2"/>
<path id="path4714" inkscape:connector-curvature="0" sodipodi:nodetypes="cccccc" class="st2" d="M64,160.5h2.5H74v2H64V160"/>
<path id="path4718" inkscape:connector-curvature="0" sodipodi:nodetypes="ccccccc" class="st2" d="M86,160.5h0.4H92v2h-6V160V160.5
	"/>
<path id="path4720" inkscape:connector-curvature="0" sodipodi:nodetypes="cccccc" class="st2" d="M110,160.5h14v2h-14V160V160.5"/>
<path id="path4722" inkscape:connector-curvature="0" sodipodi:nodetypes="cccc" class="st2" d="M92,161.5h17.8h0.2l0,0"/>
<path id="path4724" inkscape:connector-curvature="0" class="st2" d="M124,161.5h4"/>
<path id="path4726" inkscape:connector-curvature="0" sodipodi:nodetypes="cc" class="st2" d="M74,161.5h12"/>
<path id="path4728" inkscape:connector-curvature="0" class="st2" d="M58,161.5h6"/>
<path id="path4730" inkscape:connector-curvature="0" sodipodi:nodetypes="cc" class="st2" d="M45,161.5h8"/>
<path id="path4732" inkscape:connector-curvature="0" class="st2" d="M65,145.5v15"/>
<path id="path4734" inkscape:connector-curvature="0" class="st2" d="M64,146.5L64,146.5"/>
<path id="path4736" inkscape:connector-curvature="0" class="st2" d="M64,146.5h1"/>
<path id="path4738" inkscape:connector-curvature="0" class="st2" d="M57,145.5v15"/>
<path id="path4740" inkscape:connector-curvature="0" class="st2" d="M51,138.5h6v1"/>
<path id="path4744" inkscape:connector-curvature="0" class="st2" d="M52,138.5v8h6"/>
<path id="path4746" inkscape:connector-curvature="0" class="st2" d="M65,139.5v-1h23v22"/>
<path id="path4748" inkscape:connector-curvature="0" class="st2" d="M82,130.5h52"/>
<path id="path4750" inkscape:connector-curvature="0" class="st2" d="M115,123.5v7"/>
<path id="path4752" inkscape:connector-curvature="0" class="st2" d="M114,130.5v30"/>
<path id="path4754" inkscape:connector-curvature="0" class="st2" d="M129,130.5v2"/>
<path id="path4756" inkscape:connector-curvature="0" sodipodi:nodetypes="ccccc" class="st2" d="M114,107.5h8v10h-5.6H114"/>
<path id="path4758" inkscape:connector-curvature="0" class="st2" d="M122,110.5h25v20h-5"/>
<path id="path4760" inkscape:connector-curvature="0" sodipodi:nodetypes="cc" class="st2" d="M131,110.5v20"/>
<path id="path4762" inkscape:connector-curvature="0" class="st2" d="M132,64.5h5"/>
<g class="st3">
	<path d="M12,13.5l1.9-5h0.7l2.1,5h-0.8L15.3,12h-2.1l-0.6,1.5H12z M13.4,11.4h1.7L14.6,10c-0.2-0.4-0.3-0.8-0.4-1
		c-0.1,0.3-0.2,0.6-0.3,1L13.4,11.4z"/>
	<path d="M17.1,13.5v-5h0.6v5H17.1z"/>
	<path d="M21,13c-0.2,0.2-0.4,0.3-0.7,0.4c-0.2,0.1-0.4,0.1-0.7,0.1c-0.4,0-0.7-0.1-0.9-0.3c-0.2-0.2-0.3-0.4-0.3-0.7
		c0-0.2,0-0.3,0.1-0.5c0.1-0.1,0.2-0.3,0.3-0.4c0.1-0.1,0.3-0.2,0.4-0.2c0.1,0,0.3-0.1,0.5-0.1c0.5-0.1,0.9-0.1,1.1-0.2
		c0-0.1,0-0.1,0-0.2c0-0.3-0.1-0.4-0.2-0.5c-0.2-0.1-0.4-0.2-0.7-0.2c-0.3,0-0.5,0.1-0.6,0.2c-0.1,0.1-0.2,0.3-0.3,0.5l-0.6-0.1
		c0.1-0.3,0.1-0.5,0.3-0.6s0.3-0.3,0.5-0.4c0.2-0.1,0.5-0.1,0.8-0.1c0.3,0,0.6,0,0.8,0.1s0.3,0.2,0.4,0.3s0.2,0.3,0.2,0.4
		c0,0.1,0,0.3,0,0.6V12c0,0.6,0,0.9,0,1.1c0,0.2,0.1,0.3,0.2,0.4h-0.6C21.1,13.4,21.1,13.2,21,13z M21,11.7c-0.2,0.1-0.6,0.2-1,0.2
		c-0.3,0-0.4,0.1-0.5,0.1c-0.1,0-0.2,0.1-0.2,0.2s-0.1,0.2-0.1,0.3c0,0.2,0.1,0.3,0.2,0.4c0.1,0.1,0.3,0.2,0.5,0.2
		c0.2,0,0.4-0.1,0.6-0.2s0.3-0.2,0.4-0.4c0.1-0.1,0.1-0.3,0.1-0.6V11.7z"/>
	<path d="M22.6,13.5V9.9h0.6v0.5c0.1-0.3,0.3-0.4,0.4-0.5c0.1-0.1,0.3-0.1,0.4-0.1c0.2,0,0.4,0.1,0.6,0.2l-0.2,0.6
		c-0.2-0.1-0.3-0.1-0.5-0.1c-0.1,0-0.3,0-0.4,0.1s-0.2,0.2-0.2,0.3c-0.1,0.2-0.1,0.5-0.1,0.7v1.9H22.6z"/>
	<path d="M24.9,13.5V9.9h0.6v0.5c0.1-0.2,0.3-0.3,0.5-0.4s0.4-0.2,0.6-0.2c0.3,0,0.5,0.1,0.7,0.2c0.2,0.1,0.3,0.3,0.4,0.5
		c0.3-0.4,0.7-0.6,1.1-0.6c0.4,0,0.6,0.1,0.8,0.3s0.3,0.5,0.3,0.9v2.5h-0.6v-2.3c0-0.2,0-0.4-0.1-0.5c0-0.1-0.1-0.2-0.2-0.3
		c-0.1-0.1-0.2-0.1-0.4-0.1c-0.3,0-0.5,0.1-0.6,0.3s-0.3,0.4-0.3,0.8v2.1h-0.6v-2.4c0-0.3-0.1-0.5-0.2-0.6s-0.3-0.2-0.5-0.2
		c-0.2,0-0.3,0-0.5,0.1c-0.1,0.1-0.3,0.2-0.3,0.4c-0.1,0.2-0.1,0.4-0.1,0.8v1.9H24.9z"/>
	<path d="M30.9,10.6V9.9h0.7v0.7H30.9z M30.9,13.5v-0.7h0.7v0.7H30.9z"/>
</g>
<g class="st3">
	<path d="M11.5,23.5v-5h0.7l2.6,3.9v-3.9h0.6v5h-0.7l-2.6-3.9v3.9H11.5z"/>
	<path d="M18,23.5l-1.9-5h0.7l1.3,3.6c0.1,0.3,0.2,0.6,0.3,0.8c0.1-0.3,0.2-0.5,0.3-0.8l1.4-3.6h0.7l-2,5H18z"/>
	<path d="M21.3,23.5v-5h2.2c0.4,0,0.8,0,1,0.1s0.4,0.2,0.6,0.5c0.1,0.2,0.2,0.5,0.2,0.8c0,0.4-0.1,0.7-0.3,0.9
		c-0.2,0.2-0.6,0.4-1.1,0.5c0.2,0.1,0.3,0.2,0.4,0.2c0.2,0.2,0.4,0.4,0.6,0.7l0.9,1.4h-0.8l-0.7-1c-0.2-0.3-0.4-0.5-0.5-0.7
		c-0.1-0.2-0.2-0.3-0.3-0.3c-0.1-0.1-0.2-0.1-0.3-0.1c-0.1,0-0.2,0-0.4,0h-0.8v2.2H21.3z M21.9,20.7h1.4c0.3,0,0.5,0,0.7-0.1
		s0.3-0.2,0.4-0.3s0.1-0.3,0.1-0.4c0-0.2-0.1-0.4-0.3-0.6c-0.2-0.2-0.4-0.2-0.8-0.2h-1.6V20.7z"/>
	<path d="M26.4,20.6v-0.7h0.7v0.7H26.4z M26.4,23.5v-0.7h0.7v0.7H26.4z"/>
</g>
<g class="st3">
	<path d="M11.5,33.5v-5h1l1.2,3.5c0.1,0.3,0.2,0.6,0.2,0.7c0.1-0.2,0.1-0.5,0.3-0.8l1.2-3.5h0.9v5h-0.6v-4.2l-1.5,4.2h-0.6l-1.4-4.3
		v4.3H11.5z"/>
	<path d="M19.8,32.3l0.6,0.1c-0.1,0.4-0.3,0.7-0.6,0.9s-0.6,0.3-1,0.3c-0.5,0-1-0.2-1.3-0.5c-0.3-0.3-0.5-0.8-0.5-1.4
		c0-0.6,0.2-1.1,0.5-1.4s0.7-0.5,1.2-0.5c0.5,0,0.9,0.2,1.2,0.5c0.3,0.3,0.5,0.8,0.5,1.4c0,0,0,0.1,0,0.2h-2.7
		c0,0.4,0.1,0.7,0.3,0.9c0.2,0.2,0.5,0.3,0.8,0.3c0.2,0,0.4-0.1,0.6-0.2S19.7,32.6,19.8,32.3z M17.7,31.3h2c0-0.3-0.1-0.5-0.2-0.7
		c-0.2-0.2-0.5-0.4-0.8-0.4c-0.3,0-0.5,0.1-0.7,0.3C17.9,30.8,17.8,31,17.7,31.3z"/>
	<path d="M21.2,33.5v-5h0.6v5H21.2z"/>
	<path d="M23.3,33.5h-0.6v-5h0.6v1.8c0.3-0.3,0.6-0.5,1-0.5c0.2,0,0.4,0,0.6,0.1c0.2,0.1,0.4,0.2,0.5,0.4c0.1,0.2,0.2,0.4,0.3,0.6
		c0.1,0.2,0.1,0.5,0.1,0.7c0,0.6-0.2,1.1-0.5,1.4c-0.3,0.3-0.7,0.5-1.1,0.5c-0.4,0-0.8-0.2-1-0.5V33.5z M23.3,31.7
		c0,0.4,0.1,0.7,0.2,0.9c0.2,0.3,0.5,0.5,0.8,0.5c0.3,0,0.5-0.1,0.7-0.4s0.3-0.6,0.3-1c0-0.5-0.1-0.8-0.3-1
		c-0.2-0.2-0.4-0.3-0.7-0.3c-0.3,0-0.5,0.1-0.7,0.4S23.3,31.2,23.3,31.7z"/>
	<path d="M26.4,31.7c0-0.7,0.2-1.2,0.6-1.5c0.3-0.3,0.7-0.4,1.1-0.4c0.5,0,0.9,0.2,1.2,0.5s0.5,0.8,0.5,1.4c0,0.5-0.1,0.8-0.2,1.1
		c-0.1,0.3-0.3,0.5-0.6,0.6c-0.3,0.1-0.6,0.2-0.9,0.2c-0.5,0-0.9-0.2-1.2-0.5C26.5,32.8,26.4,32.3,26.4,31.7z M27,31.7
		c0,0.5,0.1,0.8,0.3,1s0.5,0.3,0.8,0.3c0.3,0,0.6-0.1,0.8-0.3s0.3-0.6,0.3-1.1c0-0.4-0.1-0.8-0.3-1c-0.2-0.2-0.5-0.3-0.8-0.3
		c-0.3,0-0.6,0.1-0.8,0.3S27,31.2,27,31.7z"/>
	<path d="M32.9,33.5V33c-0.3,0.4-0.7,0.6-1.2,0.6c-0.2,0-0.4,0-0.6-0.1c-0.2-0.1-0.3-0.2-0.4-0.3c-0.1-0.1-0.2-0.3-0.2-0.5
		c0-0.1,0-0.3,0-0.6v-2.2h0.6v2c0,0.3,0,0.5,0,0.7c0,0.2,0.1,0.3,0.2,0.4c0.1,0.1,0.3,0.1,0.5,0.1s0.4,0,0.5-0.1s0.3-0.2,0.3-0.4
		c0.1-0.2,0.1-0.4,0.1-0.7v-1.9h0.6v3.6H32.9z"/>
	<path d="M34.4,33.5v-3.6H35v0.5c0.1-0.3,0.3-0.4,0.4-0.5c0.1-0.1,0.3-0.1,0.4-0.1c0.2,0,0.4,0.1,0.6,0.2l-0.2,0.6
		c-0.2-0.1-0.3-0.1-0.5-0.1c-0.1,0-0.3,0-0.4,0.1s-0.2,0.2-0.2,0.3c-0.1,0.2-0.1,0.5-0.1,0.7v1.9H34.4z"/>
	<path d="M36.7,33.5v-3.6h0.6v0.5c0.3-0.4,0.7-0.6,1.2-0.6c0.2,0,0.4,0,0.6,0.1c0.2,0.1,0.3,0.2,0.4,0.3c0.1,0.1,0.2,0.3,0.2,0.5
		c0,0.1,0,0.3,0,0.6v2.2h-0.6v-2.2c0-0.3,0-0.4-0.1-0.6s-0.1-0.2-0.3-0.3c-0.1-0.1-0.3-0.1-0.4-0.1c-0.3,0-0.5,0.1-0.7,0.2
		c-0.2,0.2-0.3,0.5-0.3,0.9v2H36.7z"/>
	<path d="M43.1,32.3l0.6,0.1c-0.1,0.4-0.3,0.7-0.6,0.9s-0.6,0.3-1,0.3c-0.5,0-1-0.2-1.3-0.5c-0.3-0.3-0.5-0.8-0.5-1.4
		c0-0.6,0.2-1.1,0.5-1.4s0.7-0.5,1.2-0.5c0.5,0,0.9,0.2,1.2,0.5c0.3,0.3,0.5,0.8,0.5,1.4c0,0,0,0.1,0,0.2h-2.7
		c0,0.4,0.1,0.7,0.3,0.9c0.2,0.2,0.5,0.3,0.8,0.3c0.2,0,0.4-0.1,0.6-0.2S43,32.6,43.1,32.3z M41.1,31.3h2c0-0.3-0.1-0.5-0.2-0.7
		c-0.2-0.2-0.5-0.4-0.8-0.4c-0.3,0-0.5,0.1-0.7,0.3C41.2,30.8,41.1,31,41.1,31.3z"/>
	<path d="M44.7,30.6v-0.7h0.7v0.7H44.7z M44.7,33.5v-0.7h0.7v0.7H44.7z"/>
</g>
<g class="st3">
	<path d="M59.2,12v-0.6h1.9V12H59.2z"/>
	<path d="M61.5,12v-0.6h1.9V12H61.5z"/>
	<path d="M63.9,12v-0.6h1.9V12H63.9z"/>
	<path d="M66.2,12v-0.6h1.9V12H66.2z"/>
	<path d="M68.5,12v-0.6h1.9V12H68.5z"/>
	<path d="M70.9,12v-0.6h1.9V12H70.9z"/>
	<path d="M73.2,12v-0.6h1.9V12H73.2z"/>
	<path d="M75.5,12v-0.6h1.9V12H75.5z"/>
	<path d="M77.9,12v-0.6h1.9V12H77.9z"/>
	<path d="M80.2,12v-0.6h1.9V12H80.2z"/>
	<path d="M82.5,12v-0.6h1.9V12H82.5z"/>
</g>
<g class="st3">
	<path d="M59.2,22v-0.6h1.9V22H59.2z"/>
	<path d="M61.5,22v-0.6h1.9V22H61.5z"/>
	<path d="M63.9,22v-0.6h1.9V22H63.9z"/>
	<path d="M66.2,22v-0.6h1.9V22H66.2z"/>
	<path d="M68.5,22v-0.6h1.9V22H68.5z"/>
	<path d="M70.9,22v-0.6h1.9V22H70.9z"/>
	<path d="M73.2,22v-0.6h1.9V22H73.2z"/>
	<path d="M75.5,22v-0.6h1.9V22H75.5z"/>
	<path d="M77.9,22v-0.6h1.9V22H77.9z"/>
	<path d="M80.2,22v-0.6h1.9V22H80.2z"/>
	<path d="M82.5,22v-0.6h1.9V22H82.5z"/>
</g>
<g class="st3">
	<path d="M59.2,32v-0.6h1.9V32H59.2z"/>
	<path d="M61.5,32v-0.6h1.9V32H61.5z"/>
	<path d="M63.9,32v-0.6h1.9V32H63.9z"/>
	<path d="M66.2,32v-0.6h1.9V32H66.2z"/>
	<path d="M68.5,32v-0.6h1.9V32H68.5z"/>
	<path d="M70.9,32v-0.6h1.9V32H70.9z"/>
	<path d="M73.2,32v-0.6h1.9V32H73.2z"/>
	<path d="M75.5,32v-0.6h1.9V32H75.5z"/>
	<path d="M77.9,32v-0.6h1.9V32H77.9z"/>
	<path d="M80.2,32v-0.6h1.9V32H80.2z"/>
	<path d="M82.5,32v-0.6h1.9V32H82.5z"/>
</g>
<g id="camera.side_of_house" transform="matrix(0.87047864,0,0,1.1281938,-760.95359,-640.10291)" inkscape:label="camera.side_of_house">
	<path id="path4918" inkscape:connector-curvature="0" class="st4" d="M895.7,714.1h-0.3c-0.1,0-0.2,0-0.2,0v-0.7
		c0-0.4-0.4-0.7-0.9-0.7h-6.3c-0.5,0-0.9,0.3-0.9,0.7v3c0,0.4,0.4,0.7,0.9,0.7h6.3c0.5,0,0.9-0.3,0.9-0.7v-1c0.1,0,0.2,0,0.2,0h0.4
		l1.7,1.1v-3.8L895.7,714.1z"/>
</g>
<g id="camera.fuse_box" transform="matrix(0.87047864,0,0,1.1281938,-632.82285,-640.29372)" inkscape:label="camera.fuse_box">
	<path id="path4918-2" inkscape:connector-curvature="0" class="st4" d="M895.7,714.1h-0.3c-0.1,0-0.2,0-0.2,0v-0.7
		c0-0.4-0.4-0.7-0.9-0.7h-6.3c-0.5,0-0.9,0.3-0.9,0.7v3c0,0.4,0.4,0.7,0.9,0.7h6.3c0.5,0,0.9-0.3,0.9-0.7v-1c0.1,0,0.2,0,0.2,0h0.4
		l1.7,1.1v-3.8L895.7,714.1z"/>
</g>
<g id="camera.hallway" transform="matrix(-0.87047864,0,0,-1.1281938,956.67675,912.64963)" inkscape:label="camera.hallway">
	<path id="path4918-2-7" inkscape:connector-curvature="0" class="st4" d="M895.7,714.1h-0.3c-0.1,0-0.2,0-0.2,0v-0.7
		c0-0.4-0.4-0.7-0.9-0.7h-6.3c-0.5,0-0.9,0.3-0.9,0.7v3c0,0.4,0.4,0.7,0.9,0.7h6.3c0.5,0,0.9-0.3,0.9-0.7v-1c0.1,0,0.2,0,0.2,0h0.4
		l1.7,1.1v-3.8L895.7,714.1z"/>
</g>
<g id="camera.back_garden" transform="matrix(0,0.87047864,-1.1281938,0,813.6725,-709.10718)" inkscape:label="camera.back_garden">
	<path id="path4918-2-7-1" inkscape:connector-curvature="0" class="st4" d="M895.7,714.1h-0.3c-0.1,0-0.2,0-0.2,0v-0.7
		c0-0.4-0.4-0.7-0.9-0.7h-6.3c-0.5,0-0.9,0.3-0.9,0.7v3c0,0.4,0.4,0.7,0.9,0.7h6.3c0.5,0,0.9-0.3,0.9-0.7v-1c0.1,0,0.2,0,0.2,0h0.4
		l1.7,1.1v-3.8L895.7,714.1z"/>
</g>
<g id="camera.driveway" transform="matrix(0.61552135,0.61552135,-0.79775349,0.79775349,221.45286,-1110.0866)" inkscape:label="camera.driveway">
	<path id="path4918-2-7-1-2" inkscape:connector-curvature="0" class="st4" d="M895.7,714.1h-0.3c-0.1,0-0.2,0-0.2,0v-0.7
		c0-0.4-0.4-0.7-0.9-0.7h-6.3c-0.5,0-0.9,0.3-0.9,0.7v3c0,0.4,0.4,0.7,0.9,0.7h6.3c0.5,0,0.9-0.3,0.9-0.7v-1c0.1,0,0.2,0,0.2,0h0.4
		l1.7,1.1v-3.8L895.7,714.1z"/>
</g>
<g id="camera.hair_salon" transform="matrix(0.61552135,0.61552135,-0.79775349,0.79775349,168.25851,-1054.2456)" inkscape:label="camera.hair_salon">
	<path id="path4918-2-7-1-2-4" inkscape:connector-curvature="0" class="st4" d="M895.7,714.1h-0.3c-0.1,0-0.2,0-0.2,0v-0.7
		c0-0.4-0.4-0.7-0.9-0.7h-6.3c-0.5,0-0.9,0.3-0.9,0.7v3c0,0.4,0.4,0.7,0.9,0.7h6.3c0.5,0,0.9-0.3,0.9-0.7v-1c0.1,0,0.2,0,0.2,0h0.4
		l1.7,1.1v-3.8L895.7,714.1z"/>
</g>
<g id="camera.backyard" transform="matrix(-0.61552135,-0.61552135,0.79775349,-0.79775349,111.55553,1177.3777)" inkscape:label="camera.backyard">
	<path id="path4918-2-7-1-2-4-2" inkscape:connector-curvature="0" class="st4" d="M895.7,714.1h-0.3c-0.1,0-0.2,0-0.2,0v-0.7
		c0-0.4-0.4-0.7-0.9-0.7h-6.3c-0.5,0-0.9,0.3-0.9,0.7v3c0,0.4,0.4,0.7,0.9,0.7h6.3c0.5,0,0.9-0.3,0.9-0.7v-1c0.1,0,0.2,0,0.2,0h0.4
		l1.7,1.1v-3.8L895.7,714.1z"/>
</g>
<g id="camera.front_door" transform="matrix(0.61552135,-0.61552135,0.79775349,0.79775349,-925.80567,82.507864)" inkscape:label="camera.front_door">
	<path id="path4918-2-7-1-2-4-2-9" inkscape:connector-curvature="0" class="st4" d="M895.7,714.1h-0.3c-0.1,0-0.2,0-0.2,0v-0.7
		c0-0.4-0.4-0.7-0.9-0.7h-6.3c-0.5,0-0.9,0.3-0.9,0.7v3c0,0.4,0.4,0.7,0.9,0.7h6.3c0.5,0,0.9-0.3,0.9-0.7v-1c0.1,0,0.2,0,0.2,0h0.4
		l1.7,1.1v-3.8L895.7,714.1z"/>
</g>
<g id="camera.front_yard" transform="matrix(0.61552135,-0.61552135,0.79775349,0.79775349,-929.735,135.71283)" inkscape:label="camera.front_yard">
	<path id="path4918-2-7-1-2-4-2-0" inkscape:connector-curvature="0" class="st4" d="M895.7,714.1h-0.3c-0.1,0-0.2,0-0.2,0v-0.7
		c0-0.4-0.4-0.7-0.9-0.7h-6.3c-0.5,0-0.9,0.3-0.9,0.7v3c0,0.4,0.4,0.7,0.9,0.7h6.3c0.5,0,0.9-0.3,0.9-0.7v-1c0.1,0,0.2,0,0.2,0h0.4
		l1.7,1.1v-3.8L895.7,714.1z"/>
</g>
<path id="path0" inkscape:connector-curvature="0" inkscape:label="switch.doorbell " class="st4" d="M199.6,79.4c0,0.6-0.5,1-1,1h0
	c-0.6,0-1-0.5-1-1H199.6 M198.5,70.2c0.3,0,0.5,0.2,0.5,0.5l0,0v0.6c1.5,0.2,2.6,1.5,2.6,3v3.1l1.5,1.5h-9.3l1.5-1.5v-3.1
	c0-1.5,1.1-2.8,2.6-3v-0.6C198,70.4,198.2,70.2,198.5,70.2L198.5,70.2z M62.3,62.7"/>
<g id="media_player.alfresco" transform="matrix(0.02381784,0,0,0.02381784,62.294144,62.669579)" inkscape:label="media_player.alfresco">
	<g id="svgg">
		<path id="path1" inkscape:connector-curvature="0" class="st5" d="M90.3,78.3L88,80.7v75.5v75.5l-2.9,3.3l-2.9,3.3H63.1
			c-21.6,0-21.1-0.1-25,6c-2.1,3.2-3.7,4.7-6.3,5.9c-2.7,1.2-4.3,2.7-6.4,5.9c-1.5,2.4-4.1,5.2-5.7,6.1c-5.3,3.3-6.1,5-6.1,13.2
			c0,8.1,0.3,8.5,7,13.2c1.4,1,3.5,3.4,4.7,5.4c1.3,2.2,3.7,4.6,6.3,6.3c2.7,1.7,5,4.1,6.4,6.4c3.6,6.2,3.1,6,25.2,6
			c22.2,0,20.5,0.5,24.7-6.7c1-1.7,3.7-4.3,6-5.8c2.6-1.7,5-4,6.3-6.3c1.2-2,3.7-4.6,5.5-5.8c1.8-1.2,4.2-2.9,5.2-3.7l1.8-1.6v-69.3
			v-69.3l2.9-3.3l2.9-3.3h44.3h44.3l3.2,3.2l3.2,3.2v44v44l-3.2,3.2l-3.2,3.2h-19.3c-21.6,0-21.2-0.1-25,5.9c-2,3.1-3.8,4.8-6.6,6.2
			c-3.1,1.5-4.3,2.7-5.7,5.8c-1.4,2.8-2.9,4.5-6.2,6.6c-5.6,3.6-6,4.4-6,13c0,7.9,0.1,8,7,12.5c2.4,1.5,3.9,3.3,4.9,5.7
			c1.1,2.6,2.6,4.2,5.9,6.3c2.8,1.8,5.2,4.1,6.5,6.5c3.6,6.2,3.1,6,25.4,6h19.9l2.1-2.3c1.2-1.3,3.1-3.8,4.3-5.6
			c1.2-1.8,3.6-4.2,5.3-5.2c1.7-1.1,4.1-3.6,5.3-5.6c1.2-2,3.7-4.6,5.5-5.8c1.8-1.2,4.2-2.9,5.2-3.7l1.8-1.6V181.8V80.7l-2.3-2.3
			l-2.3-2.3h-70.1H92.7L90.3,78.3 M315.7,90.5c-2,2.4-2.1,2.6-2.1,15.9c0,15,0.2,15.7,6.1,19.3c1.6,1,4.1,3.7,5.5,6
			c1.7,2.6,4,5,6.3,6.3c5.6,3.3,6.9,5.7,6.9,12.9c0,7.5,0.5,8.5,6,12c6.3,4,6,2.2,6,37.7s0.3,33.6-6,37.7c-5.5,3.5-6,4.5-6,12
			c0,7.2-1.3,9.6-6.9,12.9c-2.2,1.3-4.6,3.7-6.3,6.3c-1.5,2.3-4,5-5.5,6c-5.9,3.6-6.1,4.3-6.1,19.4V308l2.3,2.6
			c3,3.4,5.3,2.5,9.2-3.6c1.8-2.8,4.2-5.2,6.7-6.8c2.5-1.5,4.8-3.8,6.1-6.1c1.4-2.4,3.8-4.8,6.7-6.7c3-2,5.1-4.1,6-6
			c0.9-2,2.9-4,5.8-5.8c5.6-3.6,6-4.5,6-12.7V256l3.2-3.2c1.8-1.8,3.9-3.2,4.7-3.2c4.9,0,4.9,0.1,4.9-49.2c0-50.8,0.4-47.6-6.3-50.3
			c-5-2-6.5-4.8-6.5-12.5c0-7.9-0.5-8.8-6-12.4c-2.9-1.8-4.8-3.8-5.8-5.8c-0.9-2-3-4-6-6c-2.9-1.9-5.3-4.4-6.7-6.7
			c-1.3-2.3-3.7-4.6-6.4-6.3c-2.7-1.7-5-4.1-6.4-6.4C321.4,87.6,318.9,86.7,315.7,90.5 M265.5,140.7c-2.2,2.2-2.3,2.7-2.3,9.3
			c0,8.3,0.4,9.2,6,12.7c2.8,1.8,5.1,4.1,6.5,6.5c1.2,2,3.5,4.6,5.2,5.6c1.7,1.1,4,3.1,5.1,4.6l2.1,2.7v18.2v18.2l-2.1,2.7
			c-1.1,1.5-3.4,3.6-5.1,4.6c-1.7,1-4,3.6-5.2,5.6c-1.4,2.4-3.7,4.7-6.5,6.5c-5.5,3.5-6,4.4-6,12.7c0,10.1,1.6,11.6,12.2,11.6
			c8.3,0,8.7-0.2,12.5-6.6c1.9-3.2,5.6-6.2,7.5-6.2c2.9,0,4.5-3.9,4.5-11c0-7.9,1.1-10.1,6.9-13.5c6-3.5,5.9-3.1,5.9-24.7
			s0.1-21.2-5.9-24.7c-5.7-3.4-6.9-5.6-6.9-13.5c0-7.9-1.1-10-6.4-12.1c-2.1-0.9-3.9-2.4-5.4-4.7c-4.5-7-4.5-7-12.9-7
			C268.2,138.4,267.8,138.5,265.5,140.7"/>
		<path id="path2" inkscape:connector-curvature="0" class="st6" d="M44,3.2v3.2L31.8,6.6L19.6,6.8l-0.5,5.4
			c-0.6,6.6-0.3,6.4-6.9,6.9l-5.4,0.5L6.6,31.8L6.4,44H3.2H0v156v156h3.2h3.2v11.8c0,13.8,0,13.8,6.9,13.8h5l0.4,2.6
			c0.2,1.4,0.5,4,0.6,5.8c0.1,1.8,0.6,3.2,1.2,3.3c0.5,0.1,6,0.1,12.2,0.2l11.2,0.1v3.2v3.2h156h156v-3.2v-3.2l12.6-0.2l12.6-0.2
			l0.2-5.8l0.2-5.8l5.8-0.2l5.8-0.2l0.2-12.6l0.2-12.6h3.2h3.2V200V44h-3.2h-3.2l-0.1-11.2c-0.1-6.2-0.1-11.6-0.2-12.2
			c-0.1-0.6-1.5-1.1-3.3-1.2c-1.8-0.1-4.4-0.4-5.8-0.6l-2.6-0.4v-5c0-7,0.1-6.9-13.8-6.9H356V3.2V0H200H44V3.2 M235.3,78.3l2.3,2.3
			v101.1v101.1l-1.8,1.6c-1,0.9-3.3,2.5-5.2,3.7c-1.9,1.2-4.3,3.8-5.5,5.8c-1.2,2-3.6,4.6-5.3,5.6c-1.7,1.1-4.1,3.4-5.3,5.2
			c-1.2,1.8-3.1,4.3-4.3,5.6l-2.1,2.3h-19.9c-22.4,0-21.8,0.1-25.4-6c-1.4-2.4-3.7-4.7-6.5-6.5c-3.3-2.1-4.8-3.7-5.9-6.3
			c-1-2.4-2.6-4.2-4.9-5.7c-7-4.5-7-4.6-7-12.5c0-8.5,0.4-9.4,6-13c3.2-2.1,4.8-3.8,6.2-6.6c1.5-3,2.6-4.2,5.7-5.8
			c2.8-1.4,4.6-3.1,6.6-6.2c3.8-6,3.4-5.9,25-5.9h19.3l3.2-3.2l3.2-3.2v-44v-44l-3.2-3.2l-3.2-3.2h-44.3h-44.3l-2.9,3.3l-2.9,3.3
			v69.3v69.3l-1.8,1.6c-1,0.9-3.3,2.5-5.2,3.7c-1.8,1.2-4.3,3.8-5.5,5.8c-1.3,2.3-3.7,4.7-6.3,6.3c-2.3,1.5-5,4.1-6,5.8
			c-4.3,7.1-2.6,6.7-24.7,6.7c-22.1,0-21.6,0.1-25.2-6c-1.4-2.3-3.7-4.7-6.4-6.4c-2.6-1.7-5-4.1-6.3-6.3c-1.2-2-3.3-4.4-4.7-5.4
			c-6.7-4.6-7-5.1-7-13.2c0-8.2,0.8-9.9,6.1-13.2c1.6-1,4.1-3.7,5.7-6.1c2.1-3.3,3.7-4.8,6.4-5.9c2.7-1.2,4.3-2.7,6.3-5.9
			c3.9-6.1,3.4-6,25-6h19.2l2.9-3.3l2.9-3.3v-75.5V80.7l2.3-2.3l2.3-2.3h70.1h70.1L235.3,78.3 M321.3,89.2c0.9,0.7,2.7,2.8,3.8,4.8
			c1.4,2.3,3.7,4.7,6.4,6.4c2.7,1.7,5,4.1,6.4,6.3c1.4,2.3,3.8,4.7,6.7,6.7c3,2,5.1,4.1,6,6c0.9,2,2.9,4,5.8,5.8
			c5.6,3.6,6,4.5,6,12.4c0,7.7,1.5,10.5,6.5,12.5c6.7,2.7,6.3-0.5,6.3,50.3c0,49.3,0,49.2-4.9,49.2c-0.8,0-3,1.4-4.7,3.2l-3.2,3.2
			v6.9c0,8.3-0.4,9.1-6,12.7c-2.9,1.8-4.8,3.8-5.8,5.8c-0.9,2-3,4-6,6c-2.9,1.9-5.3,4.4-6.7,6.7c-1.4,2.3-3.6,4.6-6.1,6.1
			c-2.5,1.6-5,4-6.7,6.8c-3.9,6.1-6.1,7-9.2,3.6l-2.3-2.6v-13.5c0-15.1,0.2-15.7,6.1-19.4c1.6-1,4.1-3.7,5.5-6c1.7-2.6,4-5,6.3-6.3
			c5.6-3.3,6.9-5.7,6.9-12.9c0-7.5,0.5-8.5,6-12c6.3-4,6-2.2,6-37.7s0.3-33.6-6-37.7c-5.5-3.5-6-4.5-6-12c0-7.2-1.3-9.6-6.9-12.9
			c-2.2-1.3-4.6-3.7-6.3-6.3c-1.5-2.3-4-5-5.5-6c-5.9-3.6-6.1-4.3-6.1-19.3C313.6,90,315.7,85.3,321.3,89.2 M284.5,140.2
			c0.9,1,2.6,3.3,3.8,5.2c1.5,2.3,3.2,3.8,5.4,4.7c5.2,2.1,6.4,4.2,6.4,12.1c0,7.9,1.1,10.1,6.9,13.5c6,3.5,5.9,3.1,5.9,24.7
			s0.1,21.2-5.9,24.7c-5.7,3.4-6.9,5.6-6.9,13.5c0,7.1-1.6,11-4.5,11c-2,0-5.6,3-7.5,6.2c-3.8,6.4-4.2,6.6-12.5,6.6
			c-10.6,0-12.2-1.5-12.2-11.6c0-8.3,0.4-9.2,6-12.7c2.8-1.8,5.1-4.1,6.5-6.5c1.2-2,3.5-4.6,5.2-5.6c1.7-1.1,4-3.1,5.1-4.6l2.1-2.7
			v-18.2v-18.2l-2.1-2.7c-1.1-1.5-3.4-3.6-5.1-4.6c-1.7-1-4-3.6-5.2-5.6c-1.4-2.4-3.7-4.7-6.5-6.5c-5.5-3.5-6-4.4-6-12.7
			c0-10.1,1.6-11.6,12.2-11.6C282.2,138.4,283.1,138.6,284.5,140.2"/>
	</g>
</g>
<g id="media_player.salon" transform="matrix(0.02381784,0,0,0.02381784,163.89264,71.709553)" inkscape:label="media_player.salon">
	<g id="svgg-3">
		<path id="path0-9" inkscape:connector-curvature="0" class="st6" d="M0,0"/>
		<path id="path1-0" inkscape:connector-curvature="0" class="st5" d="M90.3,78.3L88,80.7v75.5v75.5l-2.9,3.3l-2.9,3.3H63.1
			c-21.6,0-21.1-0.1-25,6c-2.1,3.2-3.7,4.7-6.3,5.9c-2.7,1.2-4.3,2.7-6.4,5.9c-1.5,2.4-4.1,5.2-5.7,6.1c-5.3,3.3-6.1,5-6.1,13.2
			c0,8.1,0.3,8.5,7,13.2c1.4,1,3.5,3.4,4.7,5.4c1.3,2.2,3.7,4.6,6.3,6.3c2.7,1.7,5,4.1,6.4,6.4c3.6,6.2,3.1,6,25.2,6
			c22.2,0,20.5,0.5,24.7-6.7c1-1.7,3.7-4.3,6-5.8c2.6-1.7,5-4,6.3-6.3c1.2-2,3.7-4.6,5.5-5.8c1.8-1.2,4.2-2.9,5.2-3.7l1.8-1.6v-69.3
			v-69.3l2.9-3.3l2.9-3.3h44.3h44.3l3.2,3.2l3.2,3.2v44v44l-3.2,3.2l-3.2,3.2h-19.3c-21.6,0-21.2-0.1-25,5.9c-2,3.1-3.8,4.8-6.6,6.2
			c-3.1,1.5-4.3,2.7-5.7,5.8c-1.4,2.8-2.9,4.5-6.2,6.6c-5.6,3.6-6,4.4-6,13c0,7.9,0.1,8,7,12.5c2.4,1.5,3.9,3.3,4.9,5.7
			c1.1,2.6,2.6,4.2,5.9,6.3c2.8,1.8,5.2,4.1,6.5,6.5c3.6,6.2,3.1,6,25.4,6h19.9l2.1-2.3c1.2-1.3,3.1-3.8,4.3-5.6
			c1.2-1.8,3.6-4.2,5.3-5.2c1.7-1.1,4.1-3.6,5.3-5.6c1.2-2,3.7-4.6,5.5-5.8c1.8-1.2,4.2-2.9,5.2-3.7l1.8-1.6V181.8V80.7l-2.3-2.3
			l-2.3-2.3h-70.1H92.7L90.3,78.3 M315.7,90.5c-2,2.4-2.1,2.6-2.1,15.9c0,15,0.2,15.7,6.1,19.3c1.6,1,4.1,3.7,5.5,6
			c1.7,2.6,4,5,6.3,6.3c5.6,3.3,6.9,5.7,6.9,12.9c0,7.5,0.5,8.5,6,12c6.3,4,6,2.2,6,37.7s0.3,33.6-6,37.7c-5.5,3.5-6,4.5-6,12
			c0,7.2-1.3,9.6-6.9,12.9c-2.2,1.3-4.6,3.7-6.3,6.3c-1.5,2.3-4,5-5.5,6c-5.9,3.6-6.1,4.3-6.1,19.4V308l2.3,2.6
			c3,3.4,5.3,2.5,9.2-3.6c1.8-2.8,4.2-5.2,6.7-6.8c2.5-1.5,4.8-3.8,6.1-6.1c1.4-2.4,3.8-4.8,6.7-6.7c3-2,5.1-4.1,6-6
			c0.9-2,2.9-4,5.8-5.8c5.6-3.6,6-4.5,6-12.7V256l3.2-3.2c1.8-1.8,3.9-3.2,4.7-3.2c4.9,0,4.9,0.1,4.9-49.2c0-50.8,0.4-47.6-6.3-50.3
			c-5-2-6.5-4.8-6.5-12.5c0-7.9-0.5-8.8-6-12.4c-2.9-1.8-4.8-3.8-5.8-5.8c-0.9-2-3-4-6-6c-2.9-1.9-5.3-4.4-6.7-6.7
			c-1.3-2.3-3.7-4.6-6.4-6.3c-2.7-1.7-5-4.1-6.4-6.4C321.4,87.6,318.9,86.7,315.7,90.5 M265.5,140.7c-2.2,2.2-2.3,2.7-2.3,9.3
			c0,8.3,0.4,9.2,6,12.7c2.8,1.8,5.1,4.1,6.5,6.5c1.2,2,3.5,4.6,5.2,5.6c1.7,1.1,4,3.1,5.1,4.6l2.1,2.7v18.2v18.2l-2.1,2.7
			c-1.1,1.5-3.4,3.6-5.1,4.6c-1.7,1-4,3.6-5.2,5.6c-1.4,2.4-3.7,4.7-6.5,6.5c-5.5,3.5-6,4.4-6,12.7c0,10.1,1.6,11.6,12.2,11.6
			c8.3,0,8.7-0.2,12.5-6.6c1.9-3.2,5.6-6.2,7.5-6.2c2.9,0,4.5-3.9,4.5-11c0-7.9,1.1-10.1,6.9-13.5c6-3.5,5.9-3.1,5.9-24.7
			s0.1-21.2-5.9-24.7c-5.7-3.4-6.9-5.6-6.9-13.5c0-7.9-1.1-10-6.4-12.1c-2.1-0.9-3.9-2.4-5.4-4.7c-4.5-7-4.5-7-12.9-7
			C268.2,138.4,267.8,138.5,265.5,140.7"/>
		<path id="path2-7" inkscape:connector-curvature="0" class="st6" d="M44,3.2v3.2L31.8,6.6L19.6,6.8l-0.5,5.4
			c-0.6,6.6-0.3,6.4-6.9,6.9l-5.4,0.5L6.6,31.8L6.4,44H3.2H0v156v156h3.2h3.2v11.8c0,13.8,0,13.8,6.9,13.8h5l0.4,2.6
			c0.2,1.4,0.5,4,0.6,5.8c0.1,1.8,0.6,3.2,1.2,3.3c0.5,0.1,6,0.1,12.2,0.2l11.2,0.1v3.2v3.2h156h156v-3.2v-3.2l12.6-0.2l12.6-0.2
			l0.2-5.8l0.2-5.8l5.8-0.2l5.8-0.2l0.2-12.6l0.2-12.6h3.2h3.2V200V44h-3.2h-3.2l-0.1-11.2c-0.1-6.2-0.1-11.6-0.2-12.2
			c-0.1-0.6-1.5-1.1-3.3-1.2c-1.8-0.1-4.4-0.4-5.8-0.6l-2.6-0.4v-5c0-7,0.1-6.9-13.8-6.9H356V3.2V0H200H44V3.2 M235.3,78.3l2.3,2.3
			v101.1v101.1l-1.8,1.6c-1,0.9-3.3,2.5-5.2,3.7c-1.9,1.2-4.3,3.8-5.5,5.8c-1.2,2-3.6,4.6-5.3,5.6c-1.7,1.1-4.1,3.4-5.3,5.2
			c-1.2,1.8-3.1,4.3-4.3,5.6l-2.1,2.3h-19.9c-22.4,0-21.8,0.1-25.4-6c-1.4-2.4-3.7-4.7-6.5-6.5c-3.3-2.1-4.8-3.7-5.9-6.3
			c-1-2.4-2.6-4.2-4.9-5.7c-7-4.5-7-4.6-7-12.5c0-8.5,0.4-9.4,6-13c3.2-2.1,4.8-3.8,6.2-6.6c1.5-3,2.6-4.2,5.7-5.8
			c2.8-1.4,4.6-3.1,6.6-6.2c3.8-6,3.4-5.9,25-5.9h19.3l3.2-3.2l3.2-3.2v-44v-44l-3.2-3.2l-3.2-3.2h-44.3h-44.3l-2.9,3.3l-2.9,3.3
			v69.3v69.3l-1.8,1.6c-1,0.9-3.3,2.5-5.2,3.7c-1.8,1.2-4.3,3.8-5.5,5.8c-1.3,2.3-3.7,4.7-6.3,6.3c-2.3,1.5-5,4.1-6,5.8
			c-4.3,7.1-2.6,6.7-24.7,6.7c-22.1,0-21.6,0.1-25.2-6c-1.4-2.3-3.7-4.7-6.4-6.4c-2.6-1.7-5-4.1-6.3-6.3c-1.2-2-3.3-4.4-4.7-5.4
			c-6.7-4.6-7-5.1-7-13.2c0-8.2,0.8-9.9,6.1-13.2c1.6-1,4.1-3.7,5.7-6.1c2.1-3.3,3.7-4.8,6.4-5.9c2.7-1.2,4.3-2.7,6.3-5.9
			c3.9-6.1,3.4-6,25-6h19.2l2.9-3.3l2.9-3.3v-75.5V80.7l2.3-2.3l2.3-2.3h70.1h70.1L235.3,78.3 M321.3,89.2c0.9,0.7,2.7,2.8,3.8,4.8
			c1.4,2.3,3.7,4.7,6.4,6.4c2.7,1.7,5,4.1,6.4,6.3c1.4,2.3,3.8,4.7,6.7,6.7c3,2,5.1,4.1,6,6c0.9,2,2.9,4,5.8,5.8
			c5.6,3.6,6,4.5,6,12.4c0,7.7,1.5,10.5,6.5,12.5c6.7,2.7,6.3-0.5,6.3,50.3c0,49.3,0,49.2-4.9,49.2c-0.8,0-3,1.4-4.7,3.2l-3.2,3.2
			v6.9c0,8.3-0.4,9.1-6,12.7c-2.9,1.8-4.8,3.8-5.8,5.8c-0.9,2-3,4-6,6c-2.9,1.9-5.3,4.4-6.7,6.7c-1.4,2.3-3.6,4.6-6.1,6.1
			c-2.5,1.6-5,4-6.7,6.8c-3.9,6.1-6.1,7-9.2,3.6l-2.3-2.6v-13.5c0-15.1,0.2-15.7,6.1-19.4c1.6-1,4.1-3.7,5.5-6c1.7-2.6,4-5,6.3-6.3
			c5.6-3.3,6.9-5.7,6.9-12.9c0-7.5,0.5-8.5,6-12c6.3-4,6-2.2,6-37.7s0.3-33.6-6-37.7c-5.5-3.5-6-4.5-6-12c0-7.2-1.3-9.6-6.9-12.9
			c-2.2-1.3-4.6-3.7-6.3-6.3c-1.5-2.3-4-5-5.5-6c-5.9-3.6-6.1-4.3-6.1-19.3C313.6,90,315.7,85.3,321.3,89.2 M284.5,140.2
			c0.9,1,2.6,3.3,3.8,5.2c1.5,2.3,3.2,3.8,5.4,4.7c5.2,2.1,6.4,4.2,6.4,12.1c0,7.9,1.1,10.1,6.9,13.5c6,3.5,5.9,3.1,5.9,24.7
			s0.1,21.2-5.9,24.7c-5.7,3.4-6.9,5.6-6.9,13.5c0,7.1-1.6,11-4.5,11c-2,0-5.6,3-7.5,6.2c-3.8,6.4-4.2,6.6-12.5,6.6
			c-10.6,0-12.2-1.5-12.2-11.6c0-8.3,0.4-9.2,6-12.7c2.8-1.8,5.1-4.1,6.5-6.5c1.2-2,3.5-4.6,5.2-5.6c1.7-1.1,4-3.1,5.1-4.6l2.1-2.7
			v-18.2v-18.2l-2.1-2.7c-1.1-1.5-3.4-3.6-5.1-4.6c-1.7-1-4-3.6-5.2-5.6c-1.4-2.4-3.7-4.7-6.5-6.5c-5.5-3.5-6-4.4-6-12.7
			c0-10.1,1.6-11.6,12.2-11.6C282.2,138.4,283.1,138.6,284.5,140.2"/>
	</g>
</g>
<g id="media_player.ensuite" transform="matrix(0.02381784,0,0,0.02381784,121.5262,141.87054)" inkscape:label="media_player.ensuite">
	<g id="svgg-6">
		<path id="path0-90" inkscape:connector-curvature="0" class="st6" d="M0,0"/>
		<path id="path1-8" inkscape:connector-curvature="0" class="st5" d="M90.3,78.3L88,80.7v75.5v75.5l-2.9,3.3l-2.9,3.3H63.1
			c-21.6,0-21.1-0.1-25,6c-2.1,3.2-3.7,4.7-6.3,5.9c-2.7,1.2-4.3,2.7-6.4,5.9c-1.5,2.4-4.1,5.2-5.7,6.1c-5.3,3.3-6.1,5-6.1,13.2
			c0,8.1,0.3,8.5,7,13.2c1.4,1,3.5,3.4,4.7,5.4c1.3,2.2,3.7,4.6,6.3,6.3c2.7,1.7,5,4.1,6.4,6.4c3.6,6.2,3.1,6,25.2,6
			c22.2,0,20.5,0.5,24.7-6.7c1-1.7,3.7-4.3,6-5.8c2.6-1.7,5-4,6.3-6.3c1.2-2,3.7-4.6,5.5-5.8c1.8-1.2,4.2-2.9,5.2-3.7l1.8-1.6v-69.3
			v-69.3l2.9-3.3l2.9-3.3h44.3h44.3l3.2,3.2l3.2,3.2v44v44l-3.2,3.2l-3.2,3.2h-19.3c-21.6,0-21.2-0.1-25,5.9c-2,3.1-3.8,4.8-6.6,6.2
			c-3.1,1.5-4.3,2.7-5.7,5.8c-1.4,2.8-2.9,4.5-6.2,6.6c-5.6,3.6-6,4.4-6,13c0,7.9,0.1,8,7,12.5c2.4,1.5,3.9,3.3,4.9,5.7
			c1.1,2.6,2.6,4.2,5.9,6.3c2.8,1.8,5.2,4.1,6.5,6.5c3.6,6.2,3.1,6,25.4,6h19.9l2.1-2.3c1.2-1.3,3.1-3.8,4.3-5.6
			c1.2-1.8,3.6-4.2,5.3-5.2c1.7-1.1,4.1-3.6,5.3-5.6c1.2-2,3.7-4.6,5.5-5.8c1.8-1.2,4.2-2.9,5.2-3.7l1.8-1.6V181.8V80.7l-2.3-2.3
			l-2.3-2.3h-70.1H92.7L90.3,78.3 M315.7,90.5c-2,2.4-2.1,2.6-2.1,15.9c0,15,0.2,15.7,6.1,19.3c1.6,1,4.1,3.7,5.5,6
			c1.7,2.6,4,5,6.3,6.3c5.6,3.3,6.9,5.7,6.9,12.9c0,7.5,0.5,8.5,6,12c6.3,4,6,2.2,6,37.7s0.3,33.6-6,37.7c-5.5,3.5-6,4.5-6,12
			c0,7.2-1.3,9.6-6.9,12.9c-2.2,1.3-4.6,3.7-6.3,6.3c-1.5,2.3-4,5-5.5,6c-5.9,3.6-6.1,4.3-6.1,19.4V308l2.3,2.6
			c3,3.4,5.3,2.5,9.2-3.6c1.8-2.8,4.2-5.2,6.7-6.8c2.5-1.5,4.8-3.8,6.1-6.1c1.4-2.4,3.8-4.8,6.7-6.7c3-2,5.1-4.1,6-6
			c0.9-2,2.9-4,5.8-5.8c5.6-3.6,6-4.5,6-12.7V256l3.2-3.2c1.8-1.8,3.9-3.2,4.7-3.2c4.9,0,4.9,0.1,4.9-49.2c0-50.8,0.4-47.6-6.3-50.3
			c-5-2-6.5-4.8-6.5-12.5c0-7.9-0.5-8.8-6-12.4c-2.9-1.8-4.8-3.8-5.8-5.8c-0.9-2-3-4-6-6c-2.9-1.9-5.3-4.4-6.7-6.7
			c-1.3-2.3-3.7-4.6-6.4-6.3c-2.7-1.7-5-4.1-6.4-6.4C321.4,87.6,318.9,86.7,315.7,90.5 M265.5,140.7c-2.2,2.2-2.3,2.7-2.3,9.3
			c0,8.3,0.4,9.2,6,12.7c2.8,1.8,5.1,4.1,6.5,6.5c1.2,2,3.5,4.6,5.2,5.6c1.7,1,4,3.1,5.1,4.6l2.1,2.7v18.2v18.2l-2.1,2.7
			c-1.1,1.5-3.4,3.6-5.1,4.6c-1.7,1.1-4,3.6-5.2,5.6c-1.4,2.4-3.7,4.7-6.5,6.5c-5.5,3.5-6,4.4-6,12.7c0,10.1,1.6,11.6,12.2,11.6
			c8.3,0,8.7-0.2,12.5-6.6c1.9-3.2,5.6-6.2,7.5-6.2c2.9,0,4.5-3.9,4.5-11c0-7.9,1.1-10.1,6.9-13.5c6-3.5,5.9-3.1,5.9-24.7
			s0.1-21.2-5.9-24.7c-5.7-3.4-6.9-5.6-6.9-13.5c0-7.9-1.1-10-6.4-12.1c-2.1-0.9-3.9-2.4-5.4-4.7c-4.5-7-4.5-7-12.9-7
			C268.2,138.4,267.8,138.5,265.5,140.7"/>
		<path id="path2-2" inkscape:connector-curvature="0" class="st6" d="M44,3.2v3.2L31.8,6.6L19.6,6.8l-0.5,5.4
			c-0.6,6.6-0.3,6.4-6.9,6.9l-5.4,0.5L6.6,31.8L6.4,44H3.2H0v156v156h3.2h3.2v11.8c0,13.8,0,13.8,6.9,13.8h5l0.4,2.6
			c0.2,1.4,0.5,4,0.6,5.8c0.1,1.8,0.6,3.2,1.2,3.3c0.5,0.1,6,0.1,12.2,0.2l11.2,0.1v3.2v3.2h156h156v-3.2v-3.2l12.6-0.2l12.6-0.2
			l0.2-5.8l0.2-5.8l5.8-0.2l5.8-0.2l0.2-12.6l0.2-12.6h3.2h3.2V200V44h-3.2h-3.2l-0.1-11.2c-0.1-6.2-0.1-11.6-0.2-12.2
			c-0.1-0.6-1.5-1.1-3.3-1.2c-1.8-0.1-4.4-0.4-5.8-0.6l-2.6-0.4v-5c0-7,0.1-6.9-13.8-6.9H356V3.2V0H200H44V3.2 M235.3,78.3l2.3,2.3
			v101.1v101.1l-1.8,1.6c-1,0.9-3.3,2.5-5.2,3.7c-1.9,1.2-4.3,3.8-5.5,5.8c-1.2,2-3.6,4.6-5.3,5.6c-1.7,1.1-4.1,3.4-5.3,5.2
			c-1.2,1.8-3.1,4.3-4.3,5.6l-2.1,2.3h-19.9c-22.4,0-21.8,0.1-25.4-6c-1.4-2.4-3.7-4.7-6.5-6.5c-3.3-2.1-4.8-3.7-5.9-6.3
			c-1-2.4-2.6-4.2-4.9-5.7c-7-4.5-7-4.6-7-12.5c0-8.5,0.4-9.4,6-13c3.2-2.1,4.8-3.8,6.2-6.6c1.5-3,2.6-4.2,5.7-5.8
			c2.8-1.4,4.6-3.1,6.6-6.2c3.8-6,3.4-5.9,25-5.9h19.3l3.2-3.2l3.2-3.2v-44v-44l-3.2-3.2l-3.2-3.2h-44.3h-44.3l-2.9,3.3l-2.9,3.3
			v69.3v69.3l-1.8,1.6c-1,0.9-3.3,2.5-5.2,3.7c-1.8,1.2-4.3,3.8-5.5,5.8c-1.3,2.3-3.7,4.7-6.3,6.3c-2.3,1.5-5,4.1-6,5.8
			c-4.3,7.1-2.6,6.7-24.7,6.7c-22.1,0-21.6,0.1-25.2-6c-1.4-2.3-3.7-4.7-6.4-6.4c-2.6-1.7-5-4.1-6.3-6.3c-1.2-2-3.3-4.4-4.7-5.4
			c-6.7-4.6-7-5.1-7-13.2c0-8.2,0.8-9.9,6.1-13.2c1.6-1,4.1-3.7,5.7-6.1c2.1-3.3,3.7-4.8,6.4-5.9c2.7-1.2,4.3-2.7,6.3-5.9
			c3.9-6.1,3.4-6,25-6h19.2l2.9-3.3l2.9-3.3v-75.5V80.7l2.3-2.3l2.3-2.3h70.1h70.1L235.3,78.3 M321.3,89.2c0.9,0.7,2.7,2.8,3.8,4.8
			c1.4,2.3,3.7,4.7,6.4,6.4c2.7,1.7,5,4.1,6.4,6.3c1.4,2.3,3.8,4.7,6.7,6.7c3,2,5.1,4.1,6,6c0.9,2,2.9,4,5.8,5.8
			c5.6,3.6,6,4.5,6,12.4c0,7.7,1.5,10.5,6.5,12.5c6.7,2.7,6.3-0.5,6.3,50.3c0,49.3,0,49.2-4.9,49.2c-0.8,0-3,1.4-4.7,3.2l-3.2,3.2
			v6.9c0,8.3-0.4,9.1-6,12.7c-2.9,1.8-4.8,3.8-5.8,5.8c-0.9,2-3,4-6,6c-2.9,1.9-5.3,4.4-6.7,6.7c-1.4,2.3-3.6,4.6-6.1,6.1
			c-2.5,1.6-5,4-6.7,6.8c-3.9,6.1-6.1,7-9.2,3.6l-2.3-2.6v-13.5c0-15.1,0.2-15.7,6.1-19.4c1.6-1,4.1-3.7,5.5-6c1.7-2.6,4-5,6.3-6.3
			c5.6-3.3,6.9-5.7,6.9-12.9c0-7.5,0.5-8.5,6-12c6.3-4,6-2.2,6-37.7s0.3-33.6-6-37.7c-5.5-3.5-6-4.5-6-12c0-7.2-1.3-9.6-6.9-12.9
			c-2.2-1.3-4.6-3.7-6.3-6.3c-1.5-2.3-4-5-5.5-6c-5.9-3.6-6.1-4.3-6.1-19.3C313.6,90,315.7,85.3,321.3,89.2 M284.5,140.2
			c0.9,1,2.6,3.3,3.8,5.2c1.5,2.3,3.2,3.8,5.4,4.7c5.2,2.1,6.4,4.2,6.4,12.1c0,7.9,1.1,10.1,6.9,13.5c6,3.5,5.9,3.1,5.9,24.7
			s0.1,21.2-5.9,24.7c-5.7,3.4-6.9,5.6-6.9,13.5c0,7.1-1.6,11-4.5,11c-2,0-5.6,3-7.5,6.2c-3.8,6.4-4.2,6.6-12.5,6.6
			c-10.6,0-12.2-1.5-12.2-11.6c0-8.3,0.4-9.2,6-12.7c2.8-1.8,5.1-4.1,6.5-6.5c1.2-2,3.5-4.6,5.2-5.6c1.7-1,4-3.1,5.1-4.6l2.1-2.7
			v-18.2v-18.2l-2.1-2.7c-1.1-1.5-3.4-3.6-5.1-4.6c-1.7-1.1-4-3.6-5.2-5.6c-1.4-2.4-3.7-4.7-6.5-6.5c-5.5-3.5-6-4.4-6-12.7
			c0-10.1,1.6-11.6,12.2-11.6C282.2,138.4,283.1,138.6,284.5,140.2"/>
	</g>
</g>
</svg>
